<?xml version="1.0" encoding="UTF-8"?>
<svg xmlns="http://www.w3.org/2000/svg" width="512" height="512" viewBox="0 0 512 512" role="img" aria-label="iDRAC Cool">
  <defs>
    <linearGradient id="bg" x1="0%" y1="0%" x2="100%" y2="100%">
      <stop offset="0%" stop-color="#0b1220"/>
      <stop offset="55%" stop-color="#111827"/>
      <stop offset="100%" stop-color="#0f172a"/>
    </linearGradient>
    <linearGradient id="ring" x1="0%" y1="0%" x2="100%" y2="100%">
      <stop offset="0%" stop-color="#22d3ee"/>
      <stop offset="50%" stop-color="#14b8a6"/>
      <stop offset="100%" stop-color="#2dd4bf"/>
    </linearGradient>
    <linearGradient id="cool" x1="0%" y1="0%" x2="100%" y2="0%">
      <stop offset="0%" stop-color="#2dd4bf"/>
      <stop offset="100%" stop-color="#38bdf8"/>
    </linearGradient>
    <filter id="glow" x="-40%" y="-40%" width="180%" height="180%">
      <feGaussianBlur stdDeviation="6" result="b"/>
      <feMerge>
        <feMergeNode in="b"/>
        <feMergeNode in="SourceGraphic"/>
      </feMerge>
    </filter>
  </defs>

  <!-- rounded tile -->
  <rect x="16" y="16" width="480" height="480" rx="112" fill="url(#bg)"/>
  <rect x="16" y="16" width="480" height="480" rx="112" fill="none" stroke="url(#ring)" stroke-width="3" opacity="0.55"/>

  <!-- fan / cool mark -->
  <g transform="translate(256,200)" filter="url(#glow)">
    <circle r="54" fill="none" stroke="url(#ring)" stroke-width="10" opacity="0.95"/>
    <circle r="12" fill="#67e8f9"/>
    <!-- blades -->
    <g fill="#14b8a6" opacity="0.95">
      <ellipse cx="0" cy="-34" rx="14" ry="28" transform="rotate(0)"/>
      <ellipse cx="0" cy="-34" rx="14" ry="28" transform="rotate(72)"/>
      <ellipse cx="0" cy="-34" rx="14" ry="28" transform="rotate(144)"/>
      <ellipse cx="0" cy="-34" rx="14" ry="28" transform="rotate(216)"/>
      <ellipse cx="0" cy="-34" rx="14" ry="28" transform="rotate(288)"/>
    </g>
    <circle r="8" fill="#ecfeff"/>
  </g>

  <!-- wordmark -->
  <text x="256" y="320" text-anchor="middle"
        font-family="ui-sans-serif, system-ui, -apple-system, Segoe UI, sans-serif"
        font-size="54" font-weight="700" letter-spacing="1.5" fill="#e2e8f0">iDRAC</text>
  <text x="256" y="378" text-anchor="middle"
        font-family="ui-sans-serif, system-ui, -apple-system, Segoe UI, sans-serif"
        font-size="48" font-weight="700" letter-spacing="4" fill="url(#cool)">COOL</text>
</svg>
